# xmcd
#
# Track frame offsets:
#	150
#	6831
#	27709
#	47298
#	65359
#	82173
#	101771
#	123144
#	140901
#	161910
#	183352
#	198141
#	217026
#	238924
#	252931
#	266348
#	284634
#	310263
#	327524
#	344031
#
# Disc length: 4800 seconds
#
# Revision: 0
# Processed by: cddbd v1.5.2PL0 Copyright (c) Steve Scherf et al.
# Submitted via: EasyCDDAExtractor 10.0.1.1
#
DISCID=3a12be14
DTITLE=Kelis - Kelis was here
DYEAR=2006
DGENRE=Rap
TTITLE0=Intro
TTITLE1=Bossy
TTITLE2=What's That Right There
TTITLE3=Till the Wheels Fall Off
TTITLE4=Living Proof
TTITLE5=Blindfold Me
TTITLE6=Goodbyes
TTITLE7=Trilogy
TTITLE8=Circus
TTITLE9=Weekend
TTITLE10=Like U
TTITLE11=Ah Shit
TTITLE12=Lil' Star
TTITLE13=I Don't Think So
TTITLE14=Handful
TTITLE15=Appreciate Me
TTITLE16=Have A Nice Day
TTITLE17=Fuck Them Bitches
TTITLE18=About To Hate Me
TTITLE19=Emergancy
EXTD=
EXTT0=
EXTT1=
EXTT2=
EXTT3=
EXTT4=
EXTT5=
EXTT6=
EXTT7=
EXTT8=
EXTT9=
EXTT10=
EXTT11=
EXTT12=
EXTT13=
EXTT14=
EXTT15=
EXTT16=
EXTT17=
EXTT18=
EXTT19=
PLAYORDER=
